<?xml version="1.0" encoding="UTF-8" standalone="no"?>
<svg
   width="48"
   height="48"
   viewBox="0 0 24 24"
   version="1.1"
   id="svg1"
   sodipodi:docname="weui--close2-outlined.svg"
   inkscape:version="1.3.2 (091e20e, 2023-11-25)"
   xmlns:inkscape="http://www.inkscape.org/namespaces/inkscape"
   xmlns:sodipodi="http://sodipodi.sourceforge.net/DTD/sodipodi-0.dtd"
   xmlns="http://www.w3.org/2000/svg"
   xmlns:svg="http://www.w3.org/2000/svg">
  <defs
     id="defs1" />
  <sodipodi:namedview
     id="namedview1"
     pagecolor="#ffffff"
     bordercolor="#000000"
     borderopacity="0.25"
     inkscape:showpageshadow="2"
     inkscape:pageopacity="0.0"
     inkscape:pagecheckerboard="0"
     inkscape:deskcolor="#d1d1d1"
     inkscape:zoom="7.2291667"
     inkscape:cx="23.930836"
     inkscape:cy="23.930836"
     inkscape:window-width="1392"
     inkscape:window-height="1027"
     inkscape:window-x="0"
     inkscape:window-y="25"
     inkscape:window-maximized="0"
     inkscape:current-layer="svg1" />
  <path
     fill="currentColor"
     fill-rule="evenodd"
     d="M12 22C6.477 22 2 17.523 2 12S6.477 2 12 2s10 4.477 10 10s-4.477 10-10 10m0-1.2a8.8 8.8 0 1 0 0-17.6a8.8 8.8 0 0 0 0 17.6m.849-8.8l3.11 3.111l-.848.849L12 12.849l-3.111 3.11l-.849-.848L11.151 12l-3.11-3.111l.848-.849L12 11.151l3.111-3.11l.849.848z"
     id="path1"
     style="fill:#fc354c;fill-opacity:1" />
</svg>
