<?xml version="1.0" encoding="UTF-8" standalone="no"?>
<!-- Created with Inkscape (http://www.inkscape.org/) -->

<svg
   width="1920"
   height="1357.5758"
   viewBox="0 0 508 359.19192"
   version="1.1"
   id="svg1"
   inkscape:version="1.3.2 (091e20e, 2023-11-25)"
   sodipodi:docname="blue_buble.svg"
   xml:space="preserve"
   inkscape:export-filename="one_bubble.png"
   inkscape:export-xdpi="211.43655"
   inkscape:export-ydpi="211.43655"
   xmlns:inkscape="http://www.inkscape.org/namespaces/inkscape"
   xmlns:sodipodi="http://sodipodi.sourceforge.net/DTD/sodipodi-0.dtd"
   xmlns="http://www.w3.org/2000/svg"
   xmlns:svg="http://www.w3.org/2000/svg"><sodipodi:namedview
     id="namedview1"
     pagecolor="#ffffff"
     bordercolor="#000000"
     borderopacity="0.25"
     inkscape:showpageshadow="2"
     inkscape:pageopacity="0.0"
     inkscape:pagecheckerboard="0"
     inkscape:deskcolor="#d1d1d1"
     inkscape:document-units="px"
     showguides="true"
     inkscape:zoom="0.43378823"
     inkscape:cx="1192.9784"
     inkscape:cy="643.17098"
     inkscape:window-width="1920"
     inkscape:window-height="1027"
     inkscape:window-x="0"
     inkscape:window-y="25"
     inkscape:window-maximized="0"
     inkscape:current-layer="svg1"><sodipodi:guide
       position="542.23366,380.53971"
       orientation="0,-1"
       id="guide59"
       inkscape:locked="false" /></sodipodi:namedview><defs
     id="defs1"><inkscape:path-effect
       effect="curvestitching"
       id="path-effect12"
       is_visible="true"
       lpeversion="1"
       count="75"
       startpoint_edge_variation="0;1"
       startpoint_spacing_variation="0;1"
       endpoint_edge_variation="0;1"
       endpoint_spacing_variation="0;1"
       strokepath="M 92.272762,149.84017 C 339.4488,130.97158 2.8534169,33.781487 124.66875,154.76911"
       prop_scale="1"
       scale_y_rel="false"
       strokepath-nodetypes="cc" /><inkscape:path-effect
       effect="curvestitching"
       id="path-effect8"
       is_visible="true"
       lpeversion="1"
       count="75"
       startpoint_edge_variation="0;1"
       startpoint_spacing_variation="0;1"
       endpoint_edge_variation="0;1"
       endpoint_spacing_variation="0;1"
       strokepath="M 92.272762,149.84017 C 339.4488,130.97158 2.8534169,33.781487 124.66875,154.76911"
       prop_scale="1"
       scale_y_rel="false"
       strokepath-nodetypes="cc" /><inkscape:path-effect
       effect="curvestitching"
       id="path-effect13"
       is_visible="true"
       lpeversion="1"
       count="75"
       startpoint_edge_variation="0;1"
       startpoint_spacing_variation="0;1"
       endpoint_edge_variation="0;1"
       endpoint_spacing_variation="0;1"
       strokepath="M 191.78827,112.51667 C 438.96431,93.648082 22.129848,7.0077569 152.05576,126.90551"
       prop_scale="1"
       scale_y_rel="false"
       strokepath-nodetypes="cc" /><inkscape:path-effect
       effect="curvestitching"
       id="path-effect11"
       is_visible="true"
       lpeversion="1"
       count="75"
       startpoint_edge_variation="0;1"
       startpoint_spacing_variation="0;1"
       endpoint_edge_variation="0;1"
       endpoint_spacing_variation="0;1"
       strokepath="M 108.85868,139.66109 C 354.03542,120.85331 -113.54109,37.32188 124.66875,154.76911"
       prop_scale="1"
       scale_y_rel="false"
       strokepath-nodetypes="cc" /><inkscape:path-effect
       effect="curvestitching"
       id="path-effect9"
       is_visible="true"
       lpeversion="1"
       count="75"
       startpoint_edge_variation="0;1"
       startpoint_spacing_variation="0;1"
       endpoint_edge_variation="0;1"
       endpoint_spacing_variation="0;1"
       strokepath="M 108.85868,139.66109 C 354.03542,120.85331 -113.54109,37.32188 124.66875,154.76911"
       prop_scale="1"
       scale_y_rel="false"
       strokepath-nodetypes="cc" /><inkscape:path-effect
       effect="curvestitching"
       id="path-effect7"
       is_visible="true"
       lpeversion="1"
       count="75"
       startpoint_edge_variation="0;1"
       startpoint_spacing_variation="0;1"
       endpoint_edge_variation="0;1"
       endpoint_spacing_variation="0;1"
       strokepath="M 108.85868,139.66109 C 354.03542,120.85331 -113.54109,37.32188 124.66875,154.76911"
       prop_scale="1"
       scale_y_rel="false"
       strokepath-nodetypes="cc" /><inkscape:path-effect
       effect="curvestitching"
       id="path-effect5"
       is_visible="true"
       lpeversion="1"
       count="75"
       startpoint_edge_variation="0;1"
       startpoint_spacing_variation="0;1"
       endpoint_edge_variation="0;1"
       endpoint_spacing_variation="0;1"
       strokepath="M 92.272762,149.84017 C 339.4488,130.97158 2.8534169,33.781487 124.66875,154.76911"
       prop_scale="1"
       scale_y_rel="false"
       strokepath-nodetypes="cc" /><inkscape:path-effect
       effect="knot"
       id="path-effect4"
       is_visible="true"
       lpeversion="1"
       switcher_size="15"
       interruption_width="3"
       prop_to_stroke_width="true"
       add_stroke_width="inkscape_1.0_and_up"
       both="false"
       inverse_width="false"
       add_other_stroke_width="inkscape_1.0_and_up"
       crossing_points_vector="152.40041 | 134.22669 | 0 | 74 | 0 | 0 | 1 | 1 | 1" /><inkscape:path-effect
       effect="offset"
       id="path-effect3"
       is_visible="true"
       lpeversion="1.2"
       linejoin_type="miter"
       unit="mm"
       offset="0"
       miter_limit="4"
       attempt_force_join="false"
       update_on_knot_move="true" /><inkscape:path-effect
       effect="bend_path"
       id="path-effect2"
       is_visible="true"
       lpeversion="1"
       bendpath="M 70.379169,133.87917 H 152.40001"
       prop_scale="0.99895743"
       scale_y_rel="false"
       vertical="false"
       hide_knot="true" /><inkscape:path-effect
       effect="curvestitching"
       id="path-effect1"
       is_visible="true"
       lpeversion="1"
       count="75"
       startpoint_edge_variation="0;1"
       startpoint_spacing_variation="0;1"
       endpoint_edge_variation="0;1"
       endpoint_spacing_variation="0;1"
       strokepath="M 0,0 H 1"
       prop_scale="1"
       scale_y_rel="false" /><inkscape:path-effect
       effect="curvestitching"
       id="path-effect13-3"
       is_visible="true"
       lpeversion="1"
       count="75"
       startpoint_edge_variation="0;1"
       startpoint_spacing_variation="0;1"
       endpoint_edge_variation="0;1"
       endpoint_spacing_variation="0;1"
       strokepath="M 0,0 H 1"
       prop_scale="1"
       scale_y_rel="false" /><inkscape:path-effect
       effect="curvestitching"
       id="path-effect5-8"
       is_visible="true"
       lpeversion="1"
       count="75"
       startpoint_edge_variation="0;1"
       startpoint_spacing_variation="0;1"
       endpoint_edge_variation="0;1"
       endpoint_spacing_variation="0;1"
       strokepath="M 92.272762,149.84017 C 339.4488,130.97158 2.8534169,33.781487 124.66875,154.76911"
       prop_scale="1"
       scale_y_rel="false"
       strokepath-nodetypes="cc" /><inkscape:path-effect
       effect="curvestitching"
       id="path-effect5-8-2"
       is_visible="true"
       lpeversion="1"
       count="75"
       startpoint_edge_variation="0;1"
       startpoint_spacing_variation="0;1"
       endpoint_edge_variation="0;1"
       endpoint_spacing_variation="0;1"
       strokepath="M 92.272762,149.84017 C 339.4488,130.97158 2.8534169,33.781487 124.66875,154.76911"
       prop_scale="1"
       scale_y_rel="false"
       strokepath-nodetypes="cc" /></defs><g
     inkscape:groupmode="layer"
     id="layer2"
     inkscape:label="background"><path
       d="M 114.66793,-0.60978189 V 359.86278 H 407.4375 V -0.60978189 Z"
       style="display:inline;opacity:0;fill:#25262f;fill-opacity:0;stroke:#00d7b7;stroke-width:0.79375;stroke-linecap:round;stroke-linejoin:bevel;stroke-opacity:0"
       id="path1" /><rect
       style="fill:#212121;fill-opacity:0.00177936;stroke:#212121;stroke-width:0.529167;stroke-linecap:round;stroke-linejoin:bevel;stroke-opacity:0"
       id="rect1"
       width="103.68922"
       height="95.760063"
       x="348.2738"
       y="109.17866" /></g><path
     id="ellipse1-9-7"
     style="display:inline;fill:none;stroke:#051622;stroke-width:0.278866;stroke-opacity:1"
     d="m 120.50043,159.15273 c 84.59083,-18.86939 -30.603051,-116.058395 11.08692,4.92884 m -12.99734,-3.8888 c 85.77817,-12.59849 -22.000176,-117.994652 10.69847,5.73071 m -12.75399,-4.85405 c 86.56041,-6.22547 -13.26995,-119.30045 10.25808,6.50577 m -12.43463,-5.80322 c 86.92345,0.21848 -4.46969,-119.966194 9.76767,7.25002 m -12.04181,-6.73096 c 86.85363,6.70113 4.34627,-119.988574 9.22902,7.95976 m -11.57829,-7.6325 c 86.33806,13.18945 13.12814,-119.369196 8.6437,8.63145 m -11.04685,-8.50365 c 85.36477,19.64991 21.83169,-118.112768 8.01309,9.26172 m -10.45009,-9.3408 c 83.92268,26.0488 30.41853,-116.225125 7.33828,9.84726 m -9.79035,-10.14079 c 82.0017,32.35252 38.85594,-113.711261 6.62014,10.38466 M 99.992962,161.85729 C 179.5854,200.38527 147.10881,51.283943 105.8523,172.72775 m -8.287343,-11.61707 c 76.693253,44.53965 55.163353,-106.814923 5.057793,11.301 M 95.178596,160.1277 c 73.330814,50.36637 62.944954,-102.453456 4.221644,11.67498 m -6.548308,-12.90211 c 69.530088,56.0111 70.418888,-97.506318 3.356134,11.99381 m -5.603013,-13.46805 c 65.314867,61.47065 77.531237,-92.004137 2.46711,12.25898 m -3.521577,-14.49897 c 56.966524,66.59745 87.781334,-81.991574 0.937442,12.2161 m -1.23832,-15.299 c 46.434352,71.82751 98.574932,-68.288992 -0.863598,11.96223 m 0.987547,-15.35563 c 35.359593,76.59599 107.471393,-52.956391 -2.609653,11.55975 m 3.238947,-15.13685 c 23.740169,80.7817 114.076549,-36.56992 -4.277212,11.03009 m 5.443404,-14.63908 c 11.611907,84.24672 118.221647,-19.82889 -5.85219,10.40034 m 7.531443,-13.89093 c -0.944304,86.85049 119.994214,-3.42127 -7.331024,9.69655 m 9.452764,-12.94408 c -13.792988,88.47216 119.692444,12.08415 -8.716868,8.93979 m 11.184588,-11.86479 c -26.795378,89.07199 117.741194,26.31205 -10.020154,8.14831 m 12.731708,-10.71359 c -39.812728,88.649 114.59313,39.08151 -11.252986,7.33293 m 14.116106,-9.53572 c -52.714287,87.2273 110.65642,50.37472 -12.425654,6.49733 m 15.366274,-8.35905 c -65.384022,84.85023 106.25734,60.28369 -13.545142,5.64071 m 16.505142,-7.19854 c -77.715168,81.58165 101.63955,68.94844 -14.614463,4.76163 m 17.552863,-6.05853 c -89.61365,77.49043 96.96608,76.53402 -15.633147,3.85764 m 18.523507,-4.9369 c -100.996406,72.64572 92.33227,83.20689 -16.597867,2.92631 m 19.424807,-3.82832 c -111.7887339,67.11512 87.78195,89.11985 -17.5031,1.96579 m 20.25483,-2.72511 c -121.9278557,60.99218 83.34556,94.38753 -18.34381,0.97942 m 21.01368,-1.627 c -131.381495,54.3756 79.03928,99.10491 -19.11746,-0.0277 m 21.70434,-0.53536 c -140.128008,47.35202 74.86069,103.3545 -19.82152,-1.05122 m 22.31196,0.53308 c -148.124372,40.04949 70.8291,107.18042 -20.45247,-2.07965 m 22.79737,1.53837 c -155.254797,32.67666 66.99409,110.58539 -21.00063,-3.0904 m 23.1382,2.44394 c -161.370118,25.4768 63.3939,113.56565 -21.45203,-4.05667 m 23.08181,3.13226 c -165.745631,18.93192 60.00772,116.03577 -21.72618,-4.92064 m 22.49676,3.85617 c -167.252289,12.70106 55.96802,118.20605 -21.64749,-5.73224 m 22.03349,4.86848 c -166.822464,5.94498 50.81735,120.36366 -21.29027,-6.60045 m 21.59602,5.91526 c -165.249136,-1.19627 44.86684,122.409 -20.75993,-7.50401 m 21.05681,6.95364 c -162.756252,-8.52339 38.28873,124.23074 -20.09129,-8.41441 m 20.39511,7.98697 C -23.174111,96.27852 167.38374,237.9511 116.9472,102.88893 m 19.61908,8.99979 C -18.73212,88.594131 160.04922,238.7703 118.18176,101.70054 m 18.73362,9.98023 C -13.53411,81.143324 152.28212,239.23957 119.5496,100.66034 m 17.73965,10.92588 C -7.6023049,73.998045 144.10062,239.29303 121.04614,99.786424 m 16.64057,11.827756 C -0.95936822,67.228835 135.5244,238.86163 122.6666,99.099298 m 15.43918,12.676112 C 6.3718385,60.906649 126.57614,237.87018 124.40522,98.62149 m 14.13821,13.46135 C 14.368204,55.102965 117.28226,236.23552 126.25502,98.378125 m 12.73813,14.172555 C 22.992013,49.896526 107.68698,233.86745 128.20301,98.396736 m 11.24066,14.796674 C 32.162198,45.352552 97.867106,230.67958 130.22499,98.703425 m 9.65937,15.327385 C 41.808563,41.499503 87.893235,226.57988 132.29894,99.325671 m 7.99911,15.758379 C 51.860355,38.364949 77.859572,221.47175 134.39512,100.29243 m 6.26356,16.08433 C 62.246938,35.973585 67.886054,215.25993 136.47379,101.6346 m 4.45538,16.29837 C 72.89773,34.346653 58.124741,207.85812 138.48284,103.38255 m 2.57939,16.38115 C 83.734732,33.510295 48.779744,199.20376 140.35647,105.55341 m 0.64366,16.31455 C 94.677229,33.48803 40.093814,189.27729 142.01634,108.14997 m -1.33893,16.07757 c -35.03479,-89.928347 -108.339368,53.8946 2.69743,-13.07313 m -3.34851,15.64734 C 116.5459,35.958467 25.792454,165.86362 144.3414,114.52209 m -5.35585,15.00207 C 127.2992,38.459727 20.71532,152.72644 144.83253,118.17563 m -7.32195,14.1298 c 0.31823,-90.540678 -120.21099,6.72319 7.27567,-10.29868 m -9.19958,13.0255 c 12.47899,-89.197876 -119.946423,-9.87521 8.58858,-9.15215 m -10.92073,11.67242 c 24.66211,-86.872005 -117.513899,-26.0916 9.77336,-7.9212 m -11.38673,9.71267 c 34.42274,-83.111533 -113.596717,-39.7227 10.60399,-6.68921 m -10.62635,8.2403 C 171.95416,61.012423 21.477469,92.521874 142.66074,135.07977 m -11.18845,7.42162 C 177.45716,66.15546 25.381001,85.868999 142.88762,137.57004 m -11.69143,6.57149 C 182.53552,71.667574 29.728655,79.645672 142.91811,140.10694 m -12.13227,5.69395 c 56.36445,-68.259162 -96.290924,-71.948861 11.95922,-3.1251 m -12.50652,4.78755 c 61.02215,-63.714419 -90.590672,-78.961826 12.12483,-2.20605 m -12.81335,3.85714 C 194.85389,90.24536 45.151117,63.607 141.76977,147.83212 m -13.0544,2.90792 C 197.92435,96.988997 50.967923,59.179461 140.9612,150.38161 m -13.23052,1.94395 c 72.73606,-48.3879 -70.672741,-97.093776 12.2051,0.5609 m -13.34258,0.96974 c 75.88283,-42.80707 -63.216657,-102.078843 12.09984,1.47102 m -13.39166,-0.01 c 78.64611,-37.03621 -55.426738,-106.488936 11.93257,2.36727 m -13.3791,-0.98913 c 81.02179,-31.10351 -47.355883,-110.300388 11.70602,3.24513 m -13.30672,-1.96292 c 83.00511,-25.0379 -39.061303,-113.494391 11.42312,4.10034 m -13.17684,-2.92545 c 84.59083,-18.86939 -30.603051,-116.058395 11.08692,4.92884"
     inkscape:original-d="m 120.5002,134.22699 c 0,4.99865 -4.07883,9.05086 -9.11032,9.05086 -5.03149,0 22.83743,2.13851 22.83743,-2.86014 0,-4.99865 -27.86892,-15.24158 -22.83743,-15.24158 5.03149,0 9.11032,4.05221 9.11032,9.05086 z m 31.90021,-3e-4 c 0,22.5033 -18.36104,40.70396 -41.01053,40.65231 -22.649489,-0.0516 -40.347092,-18.86528 -40.347091,-41.36859 0,-22.5033 17.697602,-40.174728 40.347091,-40.123079 22.64949,0.05164 41.01054,18.336049 41.01053,40.839359 z"
     sodipodi:nodetypes="ssssssssss"
     transform="matrix(-0.9877551,0.18904105,-0.16647041,-0.87948615,508.99046,244.08681)"
     inkscape:path-effect="#path-effect5-8-2" /><g
     inkscape:label="Layer 1"
     inkscape:groupmode="layer"
     id="layer1"
     inkscape:path-effect="#path-effect2"
     transform="translate(148.82454,28.667021)"
     style="display:inline" /><path
     id="path2"
     style="display:inline;fill:none;stroke:#051622;stroke-width:0.278866;stroke-opacity:1"
     d="m 120.50043,159.15273 c 84.59083,-18.86939 -30.603051,-116.058395 11.08692,4.92884 m -12.99734,-3.8888 c 85.77817,-12.59849 -22.000176,-117.994652 10.69847,5.73071 m -12.75399,-4.85405 c 86.56041,-6.22547 -13.26995,-119.30045 10.25808,6.50577 m -12.43463,-5.80322 c 86.92345,0.21848 -4.46969,-119.966194 9.76767,7.25002 m -12.04181,-6.73096 c 86.85363,6.70113 4.34627,-119.988574 9.22902,7.95976 m -11.57829,-7.6325 c 86.33806,13.18945 13.12814,-119.369196 8.6437,8.63145 m -11.04685,-8.50365 c 85.36477,19.64991 21.83169,-118.112768 8.01309,9.26172 m -10.45009,-9.3408 c 83.92268,26.0488 30.41853,-116.225125 7.33828,9.84726 m -9.79035,-10.14079 c 82.0017,32.35252 38.85594,-113.711261 6.62014,10.38466 M 99.992962,161.85729 C 179.5854,200.38527 147.10881,51.283943 105.8523,172.72775 m -8.287343,-11.61707 c 76.693253,44.53965 55.163353,-106.814923 5.057793,11.301 M 95.178596,160.1277 c 73.330814,50.36637 62.944954,-102.453456 4.221644,11.67498 m -6.548308,-12.90211 c 69.530088,56.0111 70.418888,-97.506318 3.356134,11.99381 m -5.603013,-13.46805 c 65.314867,61.47065 77.531237,-92.004137 2.46711,12.25898 m -3.521577,-14.49897 c 56.966524,66.59745 87.781334,-81.991574 0.937442,12.2161 m -1.23832,-15.299 c 46.434352,71.82751 98.574932,-68.288992 -0.863598,11.96223 m 0.987547,-15.35563 c 35.359593,76.59599 107.471393,-52.956391 -2.609653,11.55975 m 3.238947,-15.13685 c 23.740169,80.7817 114.076549,-36.56992 -4.277212,11.03009 m 5.443404,-14.63908 c 11.611907,84.24672 118.221647,-19.82889 -5.85219,10.40034 m 7.531443,-13.89093 c -0.944304,86.85049 119.994214,-3.42127 -7.331024,9.69655 m 9.452764,-12.94408 c -13.792988,88.47216 119.692444,12.08415 -8.716868,8.93979 m 11.184588,-11.86479 c -26.795378,89.07199 117.741194,26.31205 -10.020154,8.14831 m 12.731708,-10.71359 c -39.812728,88.649 114.59313,39.08151 -11.252986,7.33293 m 14.116106,-9.53572 c -52.714287,87.2273 110.65642,50.37472 -12.425654,6.49733 m 15.366274,-8.35905 c -65.384022,84.85023 106.25734,60.28369 -13.545142,5.64071 m 16.505142,-7.19854 c -77.715168,81.58165 101.63955,68.94844 -14.614463,4.76163 m 17.552863,-6.05853 c -89.61365,77.49043 96.96608,76.53402 -15.633147,3.85764 m 18.523507,-4.9369 c -100.996406,72.64572 92.33227,83.20689 -16.597867,2.92631 m 19.424807,-3.82832 c -111.7887339,67.11512 87.78195,89.11985 -17.5031,1.96579 m 20.25483,-2.72511 c -121.9278557,60.99218 83.34556,94.38753 -18.34381,0.97942 m 21.01368,-1.627 c -131.381495,54.3756 79.03928,99.10491 -19.11746,-0.0277 m 21.70434,-0.53536 c -140.128008,47.35202 74.86069,103.3545 -19.82152,-1.05122 m 22.31196,0.53308 c -148.124372,40.04949 70.8291,107.18042 -20.45247,-2.07965 m 22.79737,1.53837 c -155.254797,32.67666 66.99409,110.58539 -21.00063,-3.0904 m 23.1382,2.44394 c -161.370118,25.4768 63.3939,113.56565 -21.45203,-4.05667 m 23.08181,3.13226 c -165.745631,18.93192 60.00772,116.03577 -21.72618,-4.92064 m 22.49676,3.85617 c -167.252289,12.70106 55.96802,118.20605 -21.64749,-5.73224 m 22.03349,4.86848 c -166.822464,5.94498 50.81735,120.36366 -21.29027,-6.60045 m 21.59602,5.91526 c -165.249136,-1.19627 44.86684,122.409 -20.75993,-7.50401 m 21.05681,6.95364 c -162.756252,-8.52339 38.28873,124.23074 -20.09129,-8.41441 m 20.39511,7.98697 C -23.174111,96.27852 167.38374,237.9511 116.9472,102.88893 m 19.61908,8.99979 C -18.73212,88.594131 160.04922,238.7703 118.18176,101.70054 m 18.73362,9.98023 C -13.53411,81.143324 152.28212,239.23957 119.5496,100.66034 m 17.73965,10.92588 C -7.6023049,73.998045 144.10062,239.29303 121.04614,99.786424 m 16.64057,11.827756 C -0.95936822,67.228835 135.5244,238.86163 122.6666,99.099298 m 15.43918,12.676112 C 6.3718385,60.906649 126.57614,237.87018 124.40522,98.62149 m 14.13821,13.46135 C 14.368204,55.102965 117.28226,236.23552 126.25502,98.378125 m 12.73813,14.172555 C 22.992013,49.896526 107.68698,233.86745 128.20301,98.396736 m 11.24066,14.796674 C 32.162198,45.352552 97.867106,230.67958 130.22499,98.703425 m 9.65937,15.327385 C 41.808563,41.499503 87.893235,226.57988 132.29894,99.325671 m 7.99911,15.758379 C 51.860355,38.364949 77.859572,221.47175 134.39512,100.29243 m 6.26356,16.08433 C 62.246938,35.973585 67.886054,215.25993 136.47379,101.6346 m 4.45538,16.29837 C 72.89773,34.346653 58.124741,207.85812 138.48284,103.38255 m 2.57939,16.38115 C 83.734732,33.510295 48.779744,199.20376 140.35647,105.55341 m 0.64366,16.31455 C 94.677229,33.48803 40.093814,189.27729 142.01634,108.14997 m -1.33893,16.07757 c -35.03479,-89.928347 -108.339368,53.8946 2.69743,-13.07313 m -3.34851,15.64734 C 116.5459,35.958467 25.792454,165.86362 144.3414,114.52209 m -5.35585,15.00207 C 127.2992,38.459727 20.71532,152.72644 144.83253,118.17563 m -7.32195,14.1298 c 0.31823,-90.540678 -120.21099,6.72319 7.27567,-10.29868 m -9.19958,13.0255 c 12.47899,-89.197876 -119.946423,-9.87521 8.58858,-9.15215 m -10.92073,11.67242 c 24.66211,-86.872005 -117.513899,-26.0916 9.77336,-7.9212 m -11.38673,9.71267 c 34.42274,-83.111533 -113.596717,-39.7227 10.60399,-6.68921 m -10.62635,8.2403 C 171.95416,61.012423 21.477469,92.521874 142.66074,135.07977 m -11.18845,7.42162 C 177.45716,66.15546 25.381001,85.868999 142.88762,137.57004 m -11.69143,6.57149 C 182.53552,71.667574 29.728655,79.645672 142.91811,140.10694 m -12.13227,5.69395 c 56.36445,-68.259162 -96.290924,-71.948861 11.95922,-3.1251 m -12.50652,4.78755 c 61.02215,-63.714419 -90.590672,-78.961826 12.12483,-2.20605 m -12.81335,3.85714 C 194.85389,90.24536 45.151117,63.607 141.76977,147.83212 m -13.0544,2.90792 C 197.92435,96.988997 50.967923,59.179461 140.9612,150.38161 m -13.23052,1.94395 c 72.73606,-48.3879 -70.672741,-97.093776 12.2051,0.5609 m -13.34258,0.96974 c 75.88283,-42.80707 -63.216657,-102.078843 12.09984,1.47102 m -13.39166,-0.01 c 78.64611,-37.03621 -55.426738,-106.488936 11.93257,2.36727 m -13.3791,-0.98913 c 81.02179,-31.10351 -47.355883,-110.300388 11.70602,3.24513 m -13.30672,-1.96292 c 83.00511,-25.0379 -39.061303,-113.494391 11.42312,4.10034 m -13.17684,-2.92545 c 84.59083,-18.86939 -30.603051,-116.058395 11.08692,4.92884"
     inkscape:original-d="m 120.5002,134.22699 c 0,4.99865 -4.07883,9.05086 -9.11032,9.05086 -5.03149,0 22.83743,2.13851 22.83743,-2.86014 0,-4.99865 -27.86892,-15.24158 -22.83743,-15.24158 5.03149,0 9.11032,4.05221 9.11032,9.05086 z m 31.90021,-3e-4 c 0,22.5033 -18.36104,40.70396 -41.01053,40.65231 -22.649489,-0.0516 -40.347092,-18.86528 -40.347091,-41.36859 0,-22.5033 17.697602,-40.174728 40.347091,-40.123079 22.64949,0.05164 41.01054,18.336049 41.01053,40.839359 z"
     sodipodi:nodetypes="ssssssssss"
     transform="matrix(-0.9877551,0.18904105,-0.16647041,-0.87948615,468.73465,313.61959)"
     inkscape:path-effect="#path-effect8" /><path
     id="path8"
     style="display:inline;fill:none;stroke:#051622;stroke-width:0.278866;stroke-opacity:1"
     d="m 120.50043,159.15273 c 84.59083,-18.86939 -30.603051,-116.058395 11.08692,4.92884 m -12.99734,-3.8888 c 85.77817,-12.59849 -22.000176,-117.994652 10.69847,5.73071 m -12.75399,-4.85405 c 86.56041,-6.22547 -13.26995,-119.30045 10.25808,6.50577 m -12.43463,-5.80322 c 86.92345,0.21848 -4.46969,-119.966194 9.76767,7.25002 m -12.04181,-6.73096 c 86.85363,6.70113 4.34627,-119.988574 9.22902,7.95976 m -11.57829,-7.6325 c 86.33806,13.18945 13.12814,-119.369196 8.6437,8.63145 m -11.04685,-8.50365 c 85.36477,19.64991 21.83169,-118.112768 8.01309,9.26172 m -10.45009,-9.3408 c 83.92268,26.0488 30.41853,-116.225125 7.33828,9.84726 m -9.79035,-10.14079 c 82.0017,32.35252 38.85594,-113.711261 6.62014,10.38466 M 99.992962,161.85729 C 179.5854,200.38527 147.10881,51.283943 105.8523,172.72775 m -8.287343,-11.61707 c 76.693253,44.53965 55.163353,-106.814923 5.057793,11.301 M 95.178596,160.1277 c 73.330814,50.36637 62.944954,-102.453456 4.221644,11.67498 m -6.548308,-12.90211 c 69.530088,56.0111 70.418888,-97.506318 3.356134,11.99381 m -5.603013,-13.46805 c 65.314867,61.47065 77.531237,-92.004137 2.46711,12.25898 m -3.521577,-14.49897 c 56.966524,66.59745 87.781334,-81.991574 0.937442,12.2161 m -1.23832,-15.299 c 46.434352,71.82751 98.574932,-68.288992 -0.863598,11.96223 m 0.987547,-15.35563 c 35.359593,76.59599 107.471393,-52.956391 -2.609653,11.55975 m 3.238947,-15.13685 c 23.740169,80.7817 114.076549,-36.56992 -4.277212,11.03009 m 5.443404,-14.63908 c 11.611907,84.24672 118.221647,-19.82889 -5.85219,10.40034 m 7.531443,-13.89093 c -0.944304,86.85049 119.994214,-3.42127 -7.331024,9.69655 m 9.452764,-12.94408 c -13.792988,88.47216 119.692444,12.08415 -8.716868,8.93979 m 11.184588,-11.86479 c -26.795378,89.07199 117.741194,26.31205 -10.020154,8.14831 m 12.731708,-10.71359 c -39.812728,88.649 114.59313,39.08151 -11.252986,7.33293 m 14.116106,-9.53572 c -52.714287,87.2273 110.65642,50.37472 -12.425654,6.49733 m 15.366274,-8.35905 c -65.384022,84.85023 106.25734,60.28369 -13.545142,5.64071 m 16.505142,-7.19854 c -77.715168,81.58165 101.63955,68.94844 -14.614463,4.76163 m 17.552863,-6.05853 c -89.61365,77.49043 96.96608,76.53402 -15.633147,3.85764 m 18.523507,-4.9369 c -100.996406,72.64572 92.33227,83.20689 -16.597867,2.92631 m 19.424807,-3.82832 c -111.7887339,67.11512 87.78195,89.11985 -17.5031,1.96579 m 20.25483,-2.72511 c -121.9278557,60.99218 83.34556,94.38753 -18.34381,0.97942 m 21.01368,-1.627 c -131.381495,54.3756 79.03928,99.10491 -19.11746,-0.0277 m 21.70434,-0.53536 c -140.128008,47.35202 74.86069,103.3545 -19.82152,-1.05122 m 22.31196,0.53308 c -148.124372,40.04949 70.8291,107.18042 -20.45247,-2.07965 m 22.79737,1.53837 c -155.254797,32.67666 66.99409,110.58539 -21.00063,-3.0904 m 23.1382,2.44394 c -161.370118,25.4768 63.3939,113.56565 -21.45203,-4.05667 m 23.08181,3.13226 c -165.745631,18.93192 60.00772,116.03577 -21.72618,-4.92064 m 22.49676,3.85617 c -167.252289,12.70106 55.96802,118.20605 -21.64749,-5.73224 m 22.03349,4.86848 c -166.822464,5.94498 50.81735,120.36366 -21.29027,-6.60045 m 21.59602,5.91526 c -165.249136,-1.19627 44.86684,122.409 -20.75993,-7.50401 m 21.05681,6.95364 c -162.756252,-8.52339 38.28873,124.23074 -20.09129,-8.41441 m 20.39511,7.98697 C -23.174111,96.27852 167.38374,237.9511 116.9472,102.88893 m 19.61908,8.99979 C -18.73212,88.594131 160.04922,238.7703 118.18176,101.70054 m 18.73362,9.98023 C -13.53411,81.143324 152.28212,239.23957 119.5496,100.66034 m 17.73965,10.92588 C -7.6023049,73.998045 144.10062,239.29303 121.04614,99.786424 m 16.64057,11.827756 C -0.95936822,67.228835 135.5244,238.86163 122.6666,99.099298 m 15.43918,12.676112 C 6.3718385,60.906649 126.57614,237.87018 124.40522,98.62149 m 14.13821,13.46135 C 14.368204,55.102965 117.28226,236.23552 126.25502,98.378125 m 12.73813,14.172555 C 22.992013,49.896526 107.68698,233.86745 128.20301,98.396736 m 11.24066,14.796674 C 32.162198,45.352552 97.867106,230.67958 130.22499,98.703425 m 9.65937,15.327385 C 41.808563,41.499503 87.893235,226.57988 132.29894,99.325671 m 7.99911,15.758379 C 51.860355,38.364949 77.859572,221.47175 134.39512,100.29243 m 6.26356,16.08433 C 62.246938,35.973585 67.886054,215.25993 136.47379,101.6346 m 4.45538,16.29837 C 72.89773,34.346653 58.124741,207.85812 138.48284,103.38255 m 2.57939,16.38115 C 83.734732,33.510295 48.779744,199.20376 140.35647,105.55341 m 0.64366,16.31455 C 94.677229,33.48803 40.093814,189.27729 142.01634,108.14997 m -1.33893,16.07757 c -35.03479,-89.928347 -108.339368,53.8946 2.69743,-13.07313 m -3.34851,15.64734 C 116.5459,35.958467 25.792454,165.86362 144.3414,114.52209 m -5.35585,15.00207 C 127.2992,38.459727 20.71532,152.72644 144.83253,118.17563 m -7.32195,14.1298 c 0.31823,-90.540678 -120.21099,6.72319 7.27567,-10.29868 m -9.19958,13.0255 c 12.47899,-89.197876 -119.946423,-9.87521 8.58858,-9.15215 m -10.92073,11.67242 c 24.66211,-86.872005 -117.513899,-26.0916 9.77336,-7.9212 m -11.38673,9.71267 c 34.42274,-83.111533 -113.596717,-39.7227 10.60399,-6.68921 m -10.62635,8.2403 C 171.95416,61.012423 21.477469,92.521874 142.66074,135.07977 m -11.18845,7.42162 C 177.45716,66.15546 25.381001,85.868999 142.88762,137.57004 m -11.69143,6.57149 C 182.53552,71.667574 29.728655,79.645672 142.91811,140.10694 m -12.13227,5.69395 c 56.36445,-68.259162 -96.290924,-71.948861 11.95922,-3.1251 m -12.50652,4.78755 c 61.02215,-63.714419 -90.590672,-78.961826 12.12483,-2.20605 m -12.81335,3.85714 C 194.85389,90.24536 45.151117,63.607 141.76977,147.83212 m -13.0544,2.90792 C 197.92435,96.988997 50.967923,59.179461 140.9612,150.38161 m -13.23052,1.94395 c 72.73606,-48.3879 -70.672741,-97.093776 12.2051,0.5609 m -13.34258,0.96974 c 75.88283,-42.80707 -63.216657,-102.078843 12.09984,1.47102 m -13.39166,-0.01 c 78.64611,-37.03621 -55.426738,-106.488936 11.93257,2.36727 m -13.3791,-0.98913 c 81.02179,-31.10351 -47.355883,-110.300388 11.70602,3.24513 m -13.30672,-1.96292 c 83.00511,-25.0379 -39.061303,-113.494391 11.42312,4.10034 m -13.17684,-2.92545 c 84.59083,-18.86939 -30.603051,-116.058395 11.08692,4.92884"
     inkscape:original-d="m 120.5002,134.22699 c 0,4.99865 -4.07883,9.05086 -9.11032,9.05086 -5.03149,0 22.83743,2.13851 22.83743,-2.86014 0,-4.99865 -27.86892,-15.24158 -22.83743,-15.24158 5.03149,0 9.11032,4.05221 9.11032,9.05086 z m 31.90021,-3e-4 c 0,22.5033 -18.36104,40.70396 -41.01053,40.65231 -22.649489,-0.0516 -40.347092,-18.86528 -40.347091,-41.36859 0,-22.5033 17.697602,-40.174728 40.347091,-40.123079 22.64949,0.05164 41.01054,18.336049 41.01053,40.839359 z"
     sodipodi:nodetypes="ssssssssss"
     transform="matrix(-0.9877551,0.18904105,-0.16647041,-0.87948615,549.24629,313.00965)"
     inkscape:path-effect="#path-effect12" /></svg>
