<?xml version="1.0" encoding="UTF-8" standalone="no"?>
<!-- Uploaded to: SVG Repo, www.svgrepo.com, Generator: SVG Repo Mixer Tools -->

<svg
   fill="#000000"
   version="1.1"
   id="Layer_1"
   viewBox="-143 145 512 512"
   xml:space="preserve"
   sodipodi:docname="linkedin-small.svg"
   inkscape:version="1.3.2 (091e20e, 2023-11-25)"
   xmlns:inkscape="http://www.inkscape.org/namespaces/inkscape"
   xmlns:sodipodi="http://sodipodi.sourceforge.net/DTD/sodipodi-0.dtd"
   xmlns="http://www.w3.org/2000/svg"
   xmlns:svg="http://www.w3.org/2000/svg"><defs
   id="defs3" /><sodipodi:namedview
   id="namedview3"
   pagecolor="#ffffff"
   bordercolor="#000000"
   borderopacity="0.25"
   inkscape:showpageshadow="2"
   inkscape:pageopacity="0.0"
   inkscape:pagecheckerboard="0"
   inkscape:deskcolor="#d1d1d1"
   inkscape:zoom="0.86328125"
   inkscape:cx="256.57919"
   inkscape:cy="256"
   inkscape:window-width="1392"
   inkscape:window-height="1027"
   inkscape:window-x="98"
   inkscape:window-y="25"
   inkscape:window-maximized="0"
   inkscape:current-layer="Layer_1" />
<g
   id="g3"
   transform="translate(145.95475,148.27149)">
	<path
   d="M -57.280543,145 C -104.62715,145 -143,184.40995 -143,233.0362 c 0,48.62624 38.37285,88.0362 85.719457,88.0362 47.3466067,0 85.719457,-39.40996 85.719457,-88.0362 C 28.438914,184.40995 -9.9339363,145 -57.280543,145 Z M -3.7728503,287.95565 C -10.737556,295.1086 -18.80724,300.71403 -27.814479,304.6 c -9.308598,4.05792 -19.21991,6.08688 -29.466064,6.08688 -10.21267,0 -20.123982,-2.06335 -29.466063,-6.08688 -9.00724,-3.92036 -17.110404,-9.52579 -24.041634,-16.64435 -6.9647,-7.15294 -12.42262,-15.44072 -16.20633,-24.6914 -3.95113,-9.56018 -5.96018,-19.73936 -5.96018,-30.22805 0,-10.48869 2.00905,-20.66787 5.9267,-30.26244 3.81719,-9.25068 9.27511,-17.57286 16.20633,-24.69141 6.99819,-7.15294 15.067874,-12.75837 24.075114,-16.67873 9.342081,-4.02353 19.253393,-6.08688 29.466063,-6.08688 10.21267,0 20.123982,2.06335 29.466064,6.08688 9.007239,3.92036 17.110407,9.52579 24.0416287,16.64434 6.9647059,7.15294 12.4226244,15.44073 16.2063353,24.69141 3.951131,9.56018 5.926696,19.73936 5.926696,30.26244 0,10.48869 -2.009049,20.66787 -5.926696,30.26244 -3.817195,9.25068 -9.2751136,17.57285 -16.2063353,24.6914 z"
   id="path1"
   style="fill:#66cccc;fill-opacity:1;stroke-width:1" />
	<rect
   x="-97.963799"
   y="214.94751"
   width="16.708597"
   height="54.919456"
   id="rect1"
   style="fill:#66cccc;fill-opacity:1;stroke-width:1" />
	<path
   d="m -89.961086,189.0181 c -6.161086,0 -10.212674,4.09231 -10.212674,9.52579 0,5.33032 3.917651,9.52579 9.978285,9.52579 h 0.133937 c 6.295022,0 10.212669,-4.22986 10.179185,-9.52579 -0.133936,-5.43348 -3.917647,-9.52579 -10.078733,-9.52579 z"
   id="path2"
   style="fill:#66cccc;fill-opacity:1;stroke-width:1" />
	<path
   d="m -35.616289,214.43167 c -9.576471,0 -15.570136,5.36471 -16.675114,9.14751 v -8.63167 h -18.784615 c 0.234389,4.57376 0,54.91946 0,54.91946 h 18.784615 v -29.67783 c 0,-1.68507 -0.06697,-3.33575 0.40181,-4.50498 1.272399,-3.30136 4.051584,-6.74027 9.040724,-6.74027 6.529412,0 9.476019,5.08959 9.476019,12.51765 v 28.40543 h 18.952036 v -30.53756 c 0,-16.98823 -9.308597,-24.89774 -21.195475,-24.89774 z"
   id="path3"
   style="fill:#66cccc;fill-opacity:1;stroke-width:1" />
</g>
</svg>
