<?xml version="1.0" encoding="UTF-8" standalone="no"?>
<!-- Created with Inkscape (http://www.inkscape.org/) -->

<svg
   width="1920"
   height="1080"
   viewBox="0 0 507.99999 285.75"
   version="1.1"
   id="svg1"
   sodipodi:docname="one_wave_red.svg"
   inkscape:version="1.3.2 (091e20e, 2023-11-25)"
   xmlns:inkscape="http://www.inkscape.org/namespaces/inkscape"
   xmlns:sodipodi="http://sodipodi.sourceforge.net/DTD/sodipodi-0.dtd"
   xmlns:xlink="http://www.w3.org/1999/xlink"
   xmlns="http://www.w3.org/2000/svg"
   xmlns:svg="http://www.w3.org/2000/svg">
  <sodipodi:namedview
     id="namedview1"
     pagecolor="#ffffff"
     bordercolor="#000000"
     borderopacity="0.25"
     inkscape:showpageshadow="2"
     inkscape:pageopacity="0.0"
     inkscape:pagecheckerboard="0"
     inkscape:deskcolor="#d1d1d1"
     inkscape:document-units="px"
     inkscape:zoom="0.68917659"
     inkscape:cx="1441.5754"
     inkscape:cy="590.55982"
     inkscape:window-width="1776"
     inkscape:window-height="1027"
     inkscape:window-x="107"
     inkscape:window-y="25"
     inkscape:window-maximized="0"
     inkscape:current-layer="svg1" />
  <defs
     id="defs1">
    <linearGradient
       id="linearGradient146"
       inkscape:collect="always">
      <stop
         style="stop-color:#fc354c;stop-opacity:0;"
         offset="0"
         id="stop147" />
      <stop
         style="stop-color:#fc354c;stop-opacity:1;"
         offset="0.49122807"
         id="stop146" />
    </linearGradient>
    <linearGradient
       inkscape:collect="always"
       xlink:href="#linearGradient146"
       id="linearGradient147"
       x1="0.80173671"
       y1="117.87241"
       x2="507.49806"
       y2="117.87241"
       gradientUnits="userSpaceOnUse" />
  </defs>
  <g
     id="g146"
     transform="translate(0.38391224,16.892139)"
     style="stroke:url(#linearGradient147);stroke-opacity:1">
    <g
       inkscape:label="Layer 1"
       inkscape:groupmode="layer"
       id="layer1"
       style="stroke:url(#linearGradient147);stroke-opacity:1">
      <path
         style="fill:none;stroke:url(#linearGradient147);stroke-width:0.7;stroke-linecap:round;stroke-linejoin:bevel;stroke-opacity:1"
         d="M 1.1517367,98.281534 C 29.945155,151.64533 62.577696,179.28702 97.51371,143.19927 c 34.93601,-36.08775 52.59598,-81.77331 97.89762,-62.193787 45.30165,19.579527 30.32907,92.906767 72.55941,75.246797 42.23035,-17.65996 21.49909,-49.90859 93.29068,-63.729429 76.99828,-14.823198 68.7203,79.469829 95.59414,60.658129 26.87386,-18.8117 50.2925,-48.75685 50.2925,-48.75685"
         id="path1"
         sodipodi:nodetypes="csssssc" />
      <path
         style="fill:none;stroke:url(#linearGradient147);stroke-width:0.7;stroke-linecap:round;stroke-linejoin:bevel;stroke-opacity:1"
         d="M 28.409506,137.16336 C 57.202924,83.799562 62.577696,56.541784 97.51371,92.629534 c 34.93601,36.087746 52.59598,81.773306 97.89762,62.193786 45.30165,-19.57953 30.32907,-92.906766 72.55941,-75.246796 42.23035,17.65996 21.49909,49.908586 93.29068,63.729426 76.99828,14.8232 68.7203,-79.469826 95.59414,-60.658126 26.87386,18.811696 31.86471,41.462516 31.86471,41.462516"
         id="path2"
         sodipodi:nodetypes="csssssc" />
    </g>
    <g
       id="g145"
       style="stroke:url(#linearGradient147);stroke-opacity:1">
      <path
         d="M 1.85065,99.2785 C 27.6094,144.281 55.7428,170.02 86.548,151.18 c 3.7115,-2.31 7.4473,-5.299 11.2064,-9.013 33.0126,-32.465 50.6256,-73.2787 90.9716,-61.7428 2.215,0.6349 4.494,1.4288 6.842,2.3925 44.944,18.4093 30.334,87.7053 71.938,71.6613 0.158,-0.061 0.317,-0.123 0.476,-0.187 42.185,-16.766 21.523,-47.399 93.129,-60.4972 2.148,-0.3935 4.233,-0.7041 6.258,-0.9365 70.105,-8.1076 63.35,76.6397 89.18,58.5067 3.735,-2.626 7.416,-5.401 11.008,-8.181 22.091,-17.225 39.119,-38.254 39.119,-38.254"
         style="fill:none;stroke:url(#linearGradient147);stroke-width:0.7;stroke-linecap:round;stroke-linejoin:bevel;stroke-opacity:1"
         id="path108" />
      <path
         d="m 2.54957,100.275 c 25.83853,42.415 53.37313,66.759 84.28703,49.365 3.6998,-2.162 7.4192,-4.98 11.1584,-8.505 32.91,-30.723 50.542,-69.5182 90.907,-58.7529 2.214,0.5933 4.487,1.3383 6.824,2.2458 44.757,17.3131 30.225,83.0591 71.792,67.8791 0.158,-0.058 0.317,-0.117 0.476,-0.177 42.139,-15.872 21.546,-44.89 92.966,-57.2652 2.142,-0.3722 4.224,-0.6639 6.248,-0.8799 69.916,-7.5755 63.496,73.3431 89.035,55.3621 3.723,-2.63 7.405,-5.341 11.033,-7.957 22.216,-16.277 38.927,-36.156 38.927,-36.156"
         style="fill:none;stroke:url(#linearGradient147);stroke-width:0.7;stroke-linecap:round;stroke-linejoin:bevel;stroke-opacity:1"
         id="path109" />
      <path
         d="m 3.24849,101.272 c 25.91841,39.826 52.85401,62.775 83.87671,46.827 3.6881,-2.012 7.3912,-4.661 11.1104,-7.996 32.8064,-28.981 50.4584,-65.7577 90.8424,-55.763 2.213,0.5518 4.479,1.2479 6.805,2.0991 44.571,16.2169 30.117,78.4119 71.647,64.0969 0.158,-0.055 0.316,-0.11 0.475,-0.167 42.094,-14.979 21.569,-42.38 92.805,-54.0332 2.134,-0.3508 4.213,-0.6237 6.237,-0.8233 69.727,-7.0434 63.643,70.0465 88.889,52.2175 3.712,-2.634 7.396,-5.28 11.058,-7.733 22.342,-15.329 38.737,-34.059 38.737,-34.059"
         style="fill:none;stroke:url(#linearGradient147);stroke-width:0.7;stroke-linecap:round;stroke-linejoin:bevel;stroke-opacity:1"
         id="path110" />
      <path
         d="m 3.94741,102.269 c 25.99829,37.237 52.33499,58.792 83.46639,44.289 3.6764,-1.862 7.3632,-4.341 11.0625,-7.487 32.7037,-27.239 50.3747,-61.9972 90.7777,-52.7732 2.212,0.5104 4.472,1.1575 6.786,1.9525 44.385,15.1217 30.01,73.7647 71.503,60.3147 0.157,-0.052 0.315,-0.104 0.474,-0.157 42.048,-14.085 21.592,-39.871 92.642,-50.8013 2.128,-0.3293 4.203,-0.5834 6.228,-0.7666 69.537,-6.5113 63.788,66.7499 88.742,49.0729 3.701,-2.637 7.386,-5.22 11.084,-7.509 22.468,-14.38 38.545,-31.961 38.545,-31.961"
         style="fill:none;stroke:url(#linearGradient147);stroke-width:0.7;stroke-linecap:round;stroke-linejoin:bevel;stroke-opacity:1"
         id="path111" />
      <path
         d="m 4.64632,103.266 c 26.07818,34.649 51.81598,54.809 83.05598,41.751 3.6647,-1.712 7.3353,-4.022 11.0146,-6.979 32.6011,-25.495 50.2911,-58.2357 90.7131,-49.7823 2.211,0.4689 4.465,1.0671 6.767,1.8058 44.199,14.0255 29.902,69.1185 71.358,56.5315 0.157,-0.047 0.315,-0.096 0.473,-0.147 42.003,-13.191 21.616,-37.361 92.481,-47.5683 2.121,-0.308 4.192,-0.5432 6.217,-0.71 69.348,-5.9792 63.934,63.4533 88.597,45.9283 3.689,-2.641 7.376,-5.16 11.108,-7.285 22.594,-13.432 38.355,-29.863 38.355,-29.863"
         style="fill:none;stroke:url(#linearGradient147);stroke-width:0.7;stroke-linecap:round;stroke-linejoin:bevel;stroke-opacity:1"
         id="path112" />
      <path
         d="m 5.34524,104.263 c 26.15806,32.06 51.29686,50.825 82.64566,39.213 3.653,-1.562 7.3072,-3.702 10.9667,-6.47 32.4974,-23.753 50.2074,-54.4752 90.6484,-46.7924 2.21,0.4274 4.457,0.9767 6.748,1.6591 44.013,12.9293 29.794,64.4713 71.213,52.7493 0.157,-0.044 0.315,-0.09 0.473,-0.137 41.957,-12.297 21.639,-34.852 92.318,-44.336 2.114,-0.2869 4.182,-0.5033 6.207,-0.6537 69.159,-5.4472 64.08,60.1567 88.451,42.7837 3.678,-2.645 7.367,-5.1 11.133,-7.061 22.72,-12.484 38.164,-27.765 38.164,-27.765"
         style="fill:none;stroke:url(#linearGradient147);stroke-width:0.7;stroke-linecap:round;stroke-linejoin:bevel;stroke-opacity:1"
         id="path113" />
      <path
         d="m 6.04416,105.26 c 26.23784,29.472 50.77784,46.842 82.23534,36.675 3.6413,-1.413 7.2792,-3.383 10.9187,-5.961 32.3948,-22.011 50.1238,-50.7147 90.5838,-43.8026 2.209,0.386 4.45,0.8863 6.729,1.5125 43.827,11.8331 29.686,59.8241 71.068,48.9671 0.157,-0.041 0.315,-0.084 0.473,-0.127 41.911,-11.403 21.662,-32.342 92.156,-41.104 2.107,-0.266 4.171,-0.463 6.197,-0.597 68.969,-4.9152 64.225,56.86 88.305,39.639 3.666,-2.649 7.356,-5.039 11.158,-6.837 22.845,-11.536 37.973,-25.667 37.973,-25.667"
         style="fill:none;stroke:url(#linearGradient147);stroke-width:0.7;stroke-linecap:round;stroke-linejoin:bevel;stroke-opacity:1"
         id="path114" />
      <path
         d="m 6.74307,106.257 c 26.31773,26.883 50.25873,42.859 81.82493,34.138 3.6297,-1.264 7.2513,-3.064 10.8709,-5.453 32.2911,-20.268 50.0401,-46.9541 90.5191,-40.8127 2.208,0.3445 4.443,0.7959 6.711,1.3658 43.64,10.7369 29.577,55.1769 70.923,45.1849 0.156,-0.038 0.313,-0.077 0.471,-0.117 41.866,-10.51 21.686,-29.833 91.994,-37.872 2.1,-0.244 4.162,-0.423 6.187,-0.541 68.781,-4.3825 64.372,53.565 88.159,36.495 3.655,-2.652 7.347,-4.979 11.183,-6.613 22.972,-10.587 37.782,-23.57 37.782,-23.57"
         style="fill:none;stroke:url(#linearGradient147);stroke-width:0.7;stroke-linecap:round;stroke-linejoin:bevel;stroke-opacity:1"
         id="path115" />
      <path
         d="m 7.44199,107.254 c 26.39761,24.294 49.73971,38.876 81.41461,31.6 3.618,-1.114 7.2233,-2.745 10.8229,-4.944 32.1885,-18.526 49.9565,-43.1936 90.4545,-37.8228 2.207,0.303 4.435,0.7054 6.692,1.2191 43.453,9.6417 29.469,50.5307 70.778,41.4027 0.156,-0.035 0.313,-0.071 0.471,-0.107 41.82,-9.616 21.709,-27.324 91.832,-34.64 2.093,-0.223 4.151,-0.383 6.176,-0.484 68.592,-3.8508 64.518,50.268 88.014,33.35 3.643,-2.656 7.336,-4.919 11.207,-6.389 23.098,-9.639 37.591,-21.472 37.591,-21.472"
         style="fill:none;stroke:url(#linearGradient147);stroke-width:0.7;stroke-linecap:round;stroke-linejoin:bevel;stroke-opacity:1"
         id="path116" />
      <path
         d="m 8.14091,108.251 c 26.47749,21.706 49.22069,34.892 81.00429,29.062 3.6062,-0.964 7.1952,-2.425 10.775,-4.435 32.0848,-16.784 49.8728,-39.4331 90.3898,-34.8329 2.206,0.2615 4.428,0.615 6.673,1.0724 43.267,8.5455 29.362,45.8835 70.633,37.6205 0.156,-0.032 0.313,-0.064 0.47,-0.098 41.775,-8.721 21.732,-24.813 91.67,-31.407 2.086,-0.201 4.141,-0.343 6.166,-0.427 68.403,-3.319 64.664,46.971 87.868,30.205 3.632,-2.66 7.327,-4.859 11.233,-6.165 23.223,-8.691 37.4,-19.374 37.4,-19.374"
         style="fill:none;stroke:url(#linearGradient147);stroke-width:0.7;stroke-linecap:round;stroke-linejoin:bevel;stroke-opacity:1"
         id="path117" />
      <path
         d="m 8.83983,109.248 c 26.55727,19.117 48.70157,30.909 80.59387,26.524 3.5946,-0.814 7.1673,-2.106 10.7273,-3.926 31.982,-15.042 49.789,-35.6726 90.324,-31.843 2.206,0.22 4.421,0.525 6.655,0.926 43.081,7.449 29.254,41.236 70.488,33.838 0.156,-0.028 0.313,-0.058 0.47,-0.088 41.729,-7.828 21.755,-22.304 91.508,-28.176 2.079,-0.179 4.13,-0.301 6.156,-0.37 68.213,-2.786 64.809,43.675 87.722,27.061 3.62,-2.663 7.316,-4.798 11.257,-5.941 23.349,-7.742 37.209,-17.276 37.209,-17.276"
         style="fill:none;stroke:url(#linearGradient147);stroke-width:0.7;stroke-linecap:round;stroke-linejoin:bevel;stroke-opacity:1"
         id="path118" />
      <path
         d="m 9.53874,110.245 c 26.63716,16.528 48.18256,26.926 80.18356,23.986 3.5829,-0.664 7.1393,-1.786 10.6787,-3.418 31.88,-13.298 49.706,-31.9111 90.26,-28.852 2.205,0.178 4.414,0.434 6.636,0.779 42.895,6.353 29.146,36.59 70.344,30.056 0.155,-0.025 0.312,-0.051 0.468,-0.078 41.684,-6.934 21.779,-19.795 91.346,-24.944 2.073,-0.158 4.12,-0.261 6.146,-0.313 68.024,-2.255 64.956,40.378 87.576,23.916 3.609,-2.667 7.307,-4.738 11.283,-5.717 23.475,-6.794 37.018,-15.179 37.018,-15.179"
         style="fill:none;stroke:url(#linearGradient147);stroke-width:0.7;stroke-linecap:round;stroke-linejoin:bevel;stroke-opacity:1"
         id="path119" />
      <path
         d="m 10.2377,111.242 c 26.717,13.94 47.6635,22.943 79.7732,21.449 3.5712,-0.516 7.1113,-1.468 10.6311,-2.91 31.776,-11.556 49.622,-28.151 90.195,-25.862 2.204,0.137 4.407,0.343 6.617,0.632 42.709,5.257 29.038,31.943 70.199,26.274 0.155,-0.022 0.311,-0.045 0.468,-0.068 41.637,-6.041 21.802,-17.286 91.184,-21.712 2.065,-0.136 4.109,-0.221 6.135,-0.257 67.835,-1.722 65.102,37.082 87.431,20.772 3.597,-2.671 7.297,-4.678 11.307,-5.493 23.601,-5.846 36.827,-13.081 36.827,-13.081"
         style="fill:none;stroke:url(#linearGradient147);stroke-width:0.7;stroke-linecap:round;stroke-linejoin:bevel;stroke-opacity:1"
         id="path120" />
      <path
         d="m 10.9366,112.239 c 26.7969,11.351 47.1444,18.959 79.3629,18.911 3.5595,-0.366 7.0832,-1.148 10.5835,-2.401 31.673,-9.814 49.538,-24.39 90.13,-22.872 2.203,0.095 4.399,0.253 6.599,0.485 42.522,4.161 28.929,27.296 70.053,22.492 0.156,-0.019 0.311,-0.038 0.467,-0.058 41.592,-5.147 21.826,-14.776 91.022,-18.48 2.059,-0.115 4.099,-0.181 6.126,-0.2 67.645,-1.19 65.247,33.785 87.284,17.627 3.586,-2.675 7.287,-4.617 11.332,-5.269 23.727,-4.897 36.637,-10.983 36.637,-10.983"
         style="fill:none;stroke:url(#linearGradient147);stroke-width:0.7;stroke-linecap:round;stroke-linejoin:bevel;stroke-opacity:1"
         id="path121" />
      <path
         d="m 11.6355,113.236 c 26.8768,8.763 46.6254,14.976 78.9525,16.373 3.5478,-0.216 7.0553,-0.829 10.535,-1.892 31.57,-8.072 49.455,-20.63 90.066,-19.883 2.202,0.055 4.392,0.163 6.58,0.34 42.336,3.065 28.822,22.649 69.908,18.709 0.156,-0.016 0.311,-0.032 0.467,-0.048 41.546,-4.253 21.849,-12.267 90.86,-15.248 2.051,-0.094 4.089,-0.141 6.115,-0.143 67.456,-0.659 65.393,30.488 87.139,14.481 3.574,-2.677 7.277,-4.556 11.357,-5.045 23.852,-3.948 36.445,-8.884 36.445,-8.884"
         style="fill:none;stroke:url(#linearGradient147);stroke-width:0.7;stroke-linecap:round;stroke-linejoin:bevel;stroke-opacity:1"
         id="path122" />
      <path
         d="m 12.3344,114.233 c 26.9566,6.174 46.1064,10.993 78.5422,13.835 3.5361,-0.066 7.0273,-0.51 10.4874,-1.383 31.467,-6.329 49.371,-16.869 90.001,-16.893 2.201,0.013 4.385,0.073 6.561,0.193 42.149,1.969 28.714,18.002 69.763,14.926 0.156,-0.012 0.311,-0.024 0.466,-0.038 41.501,-3.359 21.873,-9.757 90.699,-12.015 2.044,-0.072 4.078,-0.1 6.104,-0.087 67.267,-0.126 65.539,27.192 86.993,11.337 3.563,-2.681 7.267,-4.496 11.382,-4.821 23.979,-3 36.255,-6.786 36.255,-6.786"
         style="fill:none;stroke:url(#linearGradient147);stroke-width:0.7;stroke-linecap:round;stroke-linejoin:bevel;stroke-opacity:1"
         id="path123" />
      <path
         d="m 13.0333,115.23 c 27.0365,3.585 45.5873,7.01 78.1319,11.297 3.5244,0.084 6.9993,-0.19 10.4398,-0.874 31.363,-4.587 49.287,-13.109 89.936,-13.903 2.2,-0.029 4.377,-0.018 6.542,0.046 41.963,0.873 28.606,13.355 69.619,11.144 0.155,-0.008 0.31,-0.018 0.465,-0.028 41.455,-2.465 21.896,-7.247 90.536,-8.783 2.037,-0.051 4.068,-0.06 6.094,-0.03 67.078,0.406 65.686,23.895 86.848,8.192 3.552,-2.685 7.257,-4.436 11.406,-4.597 24.105,-2.051 36.064,-4.689 36.064,-4.689"
         style="fill:none;stroke:url(#linearGradient147);stroke-width:0.7;stroke-linecap:round;stroke-linejoin:bevel;stroke-opacity:1"
         id="path124" />
      <path
         d="m 13.7322,116.227 c 27.1164,0.997 45.0683,3.026 77.7215,8.76 3.5128,0.232 6.9713,0.128 10.3913,-0.367 31.261,-2.844 49.204,-9.347 89.872,-10.912 2.199,-0.07 4.37,-0.108 6.523,-0.101 41.777,-0.223 28.498,8.708 69.474,7.362 0.155,-0.005 0.31,-0.011 0.464,-0.018 41.41,-1.572 21.919,-4.738 90.375,-5.551 2.03,-0.03 4.057,-0.02 6.084,0.026 66.888,0.938 65.831,20.599 86.701,5.048 3.541,-2.689 7.247,-4.375 11.432,-4.373 24.23,-1.103 35.873,-2.591 35.873,-2.591"
         style="fill:none;stroke:url(#linearGradient147);stroke-width:0.7;stroke-linecap:round;stroke-linejoin:bevel;stroke-opacity:1"
         id="path125" />
      <path
         d="m 14.4312,117.224 c 27.1962,-1.592 44.5492,-0.957 77.3111,6.222 3.5011,0.382 6.9433,0.448 10.3437,0.142 31.157,-1.102 49.12,-5.587 89.807,-7.922 2.198,-0.112 4.363,-0.199 6.504,-0.248 41.591,-1.319 28.39,4.062 69.329,3.58 0.155,-0.002 0.309,-0.005 0.464,-0.008 41.364,-0.678 21.942,-2.229 90.212,-2.319 2.024,-0.008 4.047,0.02 6.074,0.083 66.7,1.47 65.977,17.302 86.556,1.903 3.529,-2.692 7.237,-4.315 11.456,-4.149 24.356,-0.155 35.682,-0.493 35.682,-0.493"
         style="fill:none;stroke:url(#linearGradient147);stroke-width:0.7;stroke-linecap:round;stroke-linejoin:bevel;stroke-opacity:1"
         id="path126" />
      <path
         d="m 15.1301,118.221 c 27.276,-4.181 44.0301,-4.94 76.9008,3.684 3.4893,0.532 6.9153,0.767 10.2961,0.651 31.054,0.641 49.036,-1.826 89.742,-4.932 2.196,-0.154 4.355,-0.289 6.486,-0.394 41.404,-2.415 28.281,-0.586 69.183,-0.203 0.155,0.001 0.309,0.002 0.463,0.002 41.319,0.216 21.966,0.28 90.051,0.913 2.016,0.013 4.036,0.06 6.063,0.14 66.511,2.002 66.123,14.005 86.41,-1.242 3.518,-2.696 7.228,-4.255 11.481,-3.925 24.483,0.794 35.492,1.605 35.492,1.605"
         style="fill:none;stroke:url(#linearGradient147);stroke-width:0.7;stroke-linecap:round;stroke-linejoin:bevel;stroke-opacity:1"
         id="path127" />
      <path
         d="m 15.829,119.218 c 27.3559,-6.769 43.5111,-8.923 76.4904,1.146 3.4777,0.682 6.8874,1.087 10.2476,1.16 30.952,2.383 48.953,1.935 89.678,-1.942 2.195,-0.195 4.348,-0.38 6.467,-0.541 41.218,-3.511 28.174,-5.233 69.039,-3.985 0.154,0.004 0.308,0.008 0.462,0.011 41.273,1.11 21.989,2.791 89.888,4.146 2.01,0.034 4.027,0.101 6.053,0.196 66.322,2.535 66.269,10.709 86.265,-4.386 3.506,-2.7 7.217,-4.195 11.506,-3.701 24.608,1.742 35.3,3.702 35.3,3.702"
         style="fill:none;stroke:url(#linearGradient147);stroke-width:0.7;stroke-linecap:round;stroke-linejoin:bevel;stroke-opacity:1"
         id="path128" />
      <path
         d="m 16.5279,120.215 c 27.4358,-9.358 42.9921,-12.907 76.0801,-1.392 3.466,0.832 6.8593,1.406 10.2,1.669 30.848,4.125 48.869,5.695 89.613,1.048 2.194,-0.237 4.34,-0.47 6.448,-0.688 41.032,-4.607 28.066,-9.879 68.894,-7.767 0.154,0.008 0.308,0.015 0.462,0.021 41.227,2.004 22.012,5.3 89.726,7.378 2.002,0.056 4.016,0.141 6.043,0.253 66.132,3.066 66.415,7.412 86.118,-7.531 3.495,-2.703 7.208,-4.134 11.531,-3.477 24.734,2.69 35.11,5.8 35.11,5.8"
         style="fill:none;stroke:url(#linearGradient147);stroke-width:0.7;stroke-linecap:round;stroke-linejoin:bevel;stroke-opacity:1"
         id="path129" />
      <path
         d="m 17.2268,121.212 c 27.5157,-11.946 42.473,-16.89 75.6698,-3.93 3.4543,0.981 6.8313,1.726 10.1524,2.178 30.745,5.867 48.785,9.456 89.548,4.037 2.193,-0.277 4.333,-0.56 6.429,-0.834 40.846,-5.703 27.958,-14.526 68.749,-11.549 0.154,0.011 0.308,0.021 0.461,0.031 41.182,2.898 22.036,7.809 89.564,10.61 1.996,0.077 4.006,0.181 6.033,0.309 65.943,3.599 66.561,4.116 85.973,-10.675 3.483,-2.707 7.197,-4.074 11.556,-3.253 24.859,3.638 34.918,7.898 34.918,7.898"
         style="fill:none;stroke:url(#linearGradient147);stroke-width:0.7;stroke-linecap:round;stroke-linejoin:bevel;stroke-opacity:1"
         id="path130" />
      <path
         d="m 17.9257,122.209 c 27.5956,-14.535 41.954,-20.873 75.2595,-6.467 3.4426,1.13 6.8033,2.044 10.1038,2.685 30.642,7.611 48.702,13.217 89.483,7.028 2.193,-0.319 4.327,-0.651 6.411,-0.981 40.659,-6.799 27.85,-19.173 68.604,-15.331 0.154,0.014 0.307,0.028 0.461,0.041 41.136,3.791 22.059,10.318 89.402,13.842 1.988,0.099 3.995,0.221 6.022,0.366 65.754,4.131 66.707,0.819 85.827,-13.82 3.472,-2.711 7.188,-4.014 11.581,-3.029 24.986,4.587 34.728,9.996 34.728,9.996"
         style="fill:none;stroke:url(#linearGradient147);stroke-width:0.7;stroke-linecap:round;stroke-linejoin:bevel;stroke-opacity:1"
         id="path131" />
      <path
         d="m 18.6247,123.206 c 27.6753,-17.124 41.4349,-24.8565 74.849,-9.005 3.4309,1.28 6.7753,2.364 10.0563,3.194 30.539,9.353 48.618,16.978 89.418,10.018 2.192,-0.361 4.319,-0.741 6.392,-1.127 40.473,-7.896 27.742,-23.821 68.46,-19.114 0.153,0.017 0.306,0.034 0.459,0.051 41.091,4.685 22.082,12.828 89.24,17.074 1.982,0.12 3.985,0.261 6.013,0.423 65.564,4.662 66.852,-2.478 85.681,-16.965 3.46,-2.715 7.177,-3.953 11.605,-2.805 25.112,5.535 34.537,12.093 34.537,12.093"
         style="fill:none;stroke:url(#linearGradient147);stroke-width:0.7;stroke-linecap:round;stroke-linejoin:bevel;stroke-opacity:1"
         id="path132" />
      <path
         d="m 19.3236,124.203 c 27.7552,-19.712 40.9158,-28.8398 74.4387,-11.543 3.4192,1.43 6.7477,2.683 10.0087,3.703 30.435,11.095 48.534,20.738 89.353,13.008 2.191,-0.402 4.312,-0.832 6.374,-1.274 40.286,-8.991 27.634,-28.4672 68.314,-22.896 0.153,0.02 0.306,0.041 0.459,0.061 41.045,5.578 22.105,15.337 89.078,20.306 1.975,0.141 3.974,0.302 6.002,0.479 65.375,5.195 66.998,-5.774 85.535,-20.109 3.449,-2.718 7.168,-3.893 11.631,-2.581 25.237,6.483 34.346,14.191 34.346,14.191"
         style="fill:none;stroke:url(#linearGradient147);stroke-width:0.7;stroke-linecap:round;stroke-linejoin:bevel;stroke-opacity:1"
         id="path133" />
      <path
         d="m 20.0225,125.2 c 27.8351,-22.301 40.3968,-32.823 74.0284,-14.081 3.4075,1.58 6.7191,3.003 9.9601,4.212 30.333,12.837 48.451,24.499 89.289,15.998 2.19,-0.444 4.305,-0.922 6.355,-1.421 40.1,-10.087 27.526,-33.1139 68.169,-26.678 0.153,0.023 0.306,0.047 0.458,0.07 41,6.473 22.129,17.847 88.916,23.539 1.968,0.163 3.964,0.342 5.992,0.536 65.186,5.727 67.145,-9.071 85.389,-23.254 3.438,-2.722 7.159,-3.833 11.656,-2.357 25.363,7.432 34.155,16.289 34.155,16.289"
         style="fill:none;stroke:url(#linearGradient147);stroke-width:0.7;stroke-linecap:round;stroke-linejoin:bevel;stroke-opacity:1"
         id="path134" />
      <path
         d="m 20.7214,126.197 c 27.915,-24.89 39.8778,-36.8063 73.618,-16.619 3.3959,1.73 6.6916,3.322 9.9126,4.721 30.229,14.58 48.367,28.259 89.224,18.988 2.189,-0.485 4.297,-1.013 6.336,-1.568 39.914,-11.183 27.418,-37.7606 68.024,-30.461 0.153,0.028 0.306,0.055 0.458,0.081 40.954,7.367 22.152,20.357 88.754,26.771 1.961,0.184 3.954,0.382 5.981,0.592 64.997,6.259 67.291,-12.366 85.244,-26.398 3.426,-2.7259 7.148,-3.7727 11.68,-2.133 25.49,8.38 33.965,18.387 33.965,18.387"
         style="fill:none;stroke:url(#linearGradient147);stroke-width:0.7;stroke-linecap:round;stroke-linejoin:bevel;stroke-opacity:1"
         id="path135" />
      <path
         d="M 21.4203,127.194 C 49.4151,99.7158 60.779,86.4044 94.628,108.038 c 3.3842,1.878 6.663,3.641 9.864,5.229 30.127,16.322 48.284,32.02 89.16,21.978 2.188,-0.527 4.29,-1.103 6.317,-1.715 39.728,-12.279 27.31,-42.4073 67.879,-34.2426 0.153,0.0304 0.305,0.0606 0.457,0.0907 40.909,8.2599 22.176,22.8659 88.592,30.0029 1.954,0.205 3.944,0.422 5.972,0.649 64.807,6.791 67.436,-15.663 85.097,-29.543 3.415,-2.7296 7.139,-3.7124 11.706,-1.9089 25.615,9.3279 33.773,20.4849 33.773,20.4849"
         style="fill:none;stroke:url(#linearGradient147);stroke-width:0.7;stroke-linecap:round;stroke-linejoin:bevel;stroke-opacity:1"
         id="path136" />
      <path
         d="m 22.1193,128.191 c 28.0746,-30.0668 38.8396,-44.7728 72.7973,-21.694 3.3724,2.028 6.6354,3.96 9.8164,5.737 30.024,18.065 48.2,35.781 89.095,24.968 2.187,-0.568 4.283,-1.193 6.298,-1.86 39.542,-13.376 27.202,-47.055 67.735,-38.0257 0.152,0.0337 0.304,0.0672 0.456,0.1006 40.863,9.1541 22.199,25.3751 88.43,33.2351 1.947,0.227 3.933,0.463 5.961,0.706 64.619,7.323 67.582,-18.96 84.952,-32.688 3.403,-2.7333 7.128,-3.6521 11.73,-1.6849 25.741,10.2769 33.583,22.5819 33.583,22.5819"
         style="fill:none;stroke:url(#linearGradient147);stroke-width:0.7;stroke-linecap:round;stroke-linejoin:bevel;stroke-opacity:1"
         id="path137" />
      <path
         d="m 22.8182,129.188 c 28.1545,-32.6554 38.3206,-48.7561 72.3869,-24.232 3.3608,2.178 6.6079,4.28 9.7689,6.246 29.92,19.808 48.116,39.542 89.03,27.958 2.186,-0.609 4.275,-1.283 6.279,-2.007 39.355,-14.472 27.094,-51.7017 67.59,-41.8078 0.152,0.037 0.304,0.0738 0.455,0.1105 40.818,10.0483 22.223,27.8843 88.268,36.4673 1.94,0.248 3.923,0.503 5.951,0.762 64.43,7.856 67.729,-22.256 84.806,-35.832 3.392,-2.7371 7.119,-3.5918 11.756,-1.461 25.866,11.225 33.391,24.68 33.391,24.68"
         style="fill:none;stroke:url(#linearGradient147);stroke-width:0.7;stroke-linecap:round;stroke-linejoin:bevel;stroke-opacity:1"
         id="path138" />
      <path
         d="m 23.5171,130.185 c 28.2344,-35.2441 37.8015,-52.7394 71.9766,-26.77 3.3491,2.328 6.5793,4.599 9.7203,6.755 29.818,21.55 48.033,43.302 88.966,30.948 2.185,-0.651 4.268,-1.374 6.261,-2.154 39.168,-15.567 26.986,-56.3484 67.444,-45.5899 0.152,0.0402 0.304,0.0804 0.455,0.1204 40.772,10.9415 22.246,30.3945 88.106,39.6995 1.933,0.269 3.912,0.543 5.94,0.819 64.241,8.387 67.875,-25.553 84.661,-38.9771 3.38,-2.7407 7.109,-3.5315 11.78,-1.2369 25.993,12.173 33.201,26.778 33.201,26.778"
         style="fill:none;stroke:url(#linearGradient147);stroke-width:0.7;stroke-linecap:round;stroke-linejoin:bevel;stroke-opacity:1"
         id="path139" />
      <path
         d="m 24.216,131.182 c 28.3143,-37.8327 37.2825,-56.7226 71.5663,-29.308 3.3374,2.478 6.5517,4.919 9.6727,7.264 29.714,23.292 47.949,47.063 88.901,33.938 2.184,-0.692 4.26,-1.464 6.242,-2.301 38.982,-16.663 26.878,-60.9951 67.299,-49.372 0.152,0.0435 0.304,0.0869 0.454,0.1303 40.727,11.8357 22.269,32.9037 87.944,42.9317 1.927,0.291 3.902,0.583 5.931,0.875 64.051,8.92 68.02,-28.849 84.514,-42.1211 3.369,-2.7444 7.099,-3.4712 11.805,-1.0129 26.119,13.122 33.01,28.876 33.01,28.876"
         style="fill:none;stroke:url(#linearGradient147);stroke-width:0.7;stroke-linecap:round;stroke-linejoin:bevel;stroke-opacity:1"
         id="path140" />
      <path
         d="m 24.9149,132.179 c 28.3941,-40.4213 36.7635,-60.7059 71.156,-31.845 3.3257,2.626 6.5231,5.237 9.6251,7.772 29.611,25.034 47.865,50.823 88.836,36.928 2.183,-0.734 4.253,-1.555 6.223,-2.448 38.796,-17.759 26.77,-65.6418 67.155,-53.154 0.151,0.0467 0.302,0.0934 0.453,0.1401 40.68,12.7289 22.292,35.4129 87.782,46.1639 1.919,0.312 3.891,0.623 5.92,0.932 63.862,9.452 68.166,-32.146 84.369,-45.2661 3.357,-2.7482 7.089,-3.4109 11.83,-0.7889 26.244,14.07 32.819,30.973 32.819,30.973"
         style="fill:none;stroke:url(#linearGradient147);stroke-width:0.7;stroke-linecap:round;stroke-linejoin:bevel;stroke-opacity:1"
         id="path141" />
      <path
         d="m 25.6138,133.175 c 28.474,-43.0089 36.2444,-64.6882 70.7456,-34.3822 3.314,2.7762 6.4956,5.5572 9.5766,8.2812 29.508,26.777 47.782,54.584 88.772,39.918 2.182,-0.776 4.246,-1.646 6.204,-2.594 38.61,-18.856 26.662,-70.2895 67.01,-56.9371 0.151,0.05 0.302,0.1 0.453,0.1501 40.634,13.623 22.315,37.923 87.619,49.396 1.913,0.334 3.882,0.664 5.91,0.989 63.673,9.983 68.312,-35.443 84.223,-48.4112 3.346,-2.7518 7.079,-3.3506 11.855,-0.5649 26.37,15.0181 32.628,33.0711 32.628,33.0711"
         style="fill:none;stroke:url(#linearGradient147);stroke-width:0.7;stroke-linecap:round;stroke-linejoin:bevel;stroke-opacity:1"
         id="path142" />
      <path
         d="M 26.3128,134.172 C 54.8666,88.5744 62.0381,65.5006 96.648,97.252 c 3.3023,2.926 6.467,5.876 9.529,8.79 29.405,28.519 47.698,58.344 88.707,42.908 2.181,-0.817 4.238,-1.736 6.185,-2.741 38.424,-19.952 26.554,-74.9362 66.865,-60.7192 0.151,0.0532 0.302,0.1066 0.452,0.16 40.589,14.5172 22.339,40.4322 87.458,52.6282 1.905,0.355 3.871,0.704 5.9,1.045 63.483,10.516 68.458,-38.739 84.077,-51.5552 3.334,-2.7555 7.069,-3.2903 11.879,-0.3409 26.497,15.9671 32.438,35.1691 32.438,35.1691"
         style="fill:none;stroke:url(#linearGradient147);stroke-width:0.7;stroke-linecap:round;stroke-linejoin:bevel;stroke-opacity:1"
         id="path143" />
      <path
         d="M 27.0117,135.169 C 55.6454,86.9828 62.218,62.5143 96.9366,95.7112 c 3.2904,3.0757 6.4394,6.1948 9.4814,9.2978 29.302,30.262 47.614,62.106 88.641,45.899 2.181,-0.859 4.232,-1.827 6.167,-2.888 38.238,-21.047 26.446,-79.5829 66.72,-64.5013 0.151,0.0565 0.302,0.1132 0.452,0.1699 40.543,15.4106 22.362,42.9414 87.295,55.8604 1.899,0.376 3.861,0.744 5.89,1.102 63.294,11.048 68.604,-42.036 83.931,-54.7002 3.323,-2.7592 7.059,-3.23 11.905,-0.1169 26.622,16.9151 32.246,37.2671 32.246,37.2671"
         style="fill:none;stroke:url(#linearGradient147);stroke-width:0.7;stroke-linecap:round;stroke-linejoin:bevel;stroke-opacity:1"
         id="path144" />
      <path
         d="M 27.7106,136.166 C 56.4241,85.3912 62.3978,59.528 97.2251,94.1703 c 3.2789,3.2254 6.4119,6.5147 9.4329,9.8067 29.199,32.004 47.531,65.866 88.577,48.888 2.18,-0.899 4.225,-1.916 6.149,-3.034 38.051,-22.143 26.338,-84.2296 66.575,-68.2834 0.15,0.0598 0.301,0.1197 0.45,0.1798 40.498,16.3044 22.386,45.4506 87.134,59.0926 1.891,0.398 3.85,0.784 5.879,1.158 63.105,11.58 68.75,-45.332 83.786,-57.8443 3.311,-2.7629 7.049,-3.1697 11.929,0.1072 26.748,17.8631 32.056,39.3651 32.056,39.3651"
         style="fill:none;stroke:url(#linearGradient147);stroke-width:0.7;stroke-linecap:round;stroke-linejoin:bevel;stroke-opacity:1"
         id="path145" />
    </g>
  </g>
</svg>
